<?xml version="1.0" encoding="UTF-8"?>
<svg xmlns="http://www.w3.org/2000/svg" xmlns:xlink="http://www.w3.org/1999/xlink" version="1.1" id="Layer_1" x="0px" y="0px" viewBox="0 0 1080 189" style="enable-background:new 0 0 1080 189;" xml:space="preserve"> <style type="text/css"> .st0{fill:#9FA1A4;stroke:#9FA1A4;stroke-width:0.79;stroke-miterlimit:10;} .st1{fill:#231F20;} .st2{fill:#7AC142;stroke:#7AC142;stroke-width:0.79;stroke-miterlimit:10;} .st3{fill:#FFFFFF;} </style> <g> <path class="st0" d="M164.3,99.9c-12.7,0-20.4,0.1-33.7,0.1c8.8-57.3-55-102.5-108.4-73.7C15.5,30,5.8,37.6,5.8,37.6s4-6.3,7.1-9.5 C61.6-27.6,172.6,3.7,164.3,99.9"></path> <path class="st1" d="M1,126.8c33.4,39.5,107.4,39.7,129.6-13.7h60.7C179.7,205.4,31.6,216.3,1,126.8"></path> <path class="st2" d="M109.3,87c0,27.8-22.6,50.4-50.4,50.4S8.6,114.9,8.6,87S31.1,36.6,59,36.6S109.3,59.2,109.3,87"></path> <path class="st3" d="M434,35.3h6.6v13.4H321c-3.7,0-6.9,1.3-9.5,3.9c-2.6,2.6-3.9,5.7-3.9,9.3v93h-13.2v-93 c0-7.4,2.6-13.6,7.8-18.8c5.2-5.2,11.4-7.8,18.8-7.8L434,35.3L434,35.3z"></path> <path class="st3" d="M621.4,43.1c5.2-5.2,11.4-7.7,18.8-7.7h93c7.4,0,13.6,2.6,18.8,7.7c5.2,5.2,7.8,11.4,7.8,18.8v93h-13.2v-93 c0-3.7-1.3-6.9-3.9-9.4c-2.6-2.5-5.8-3.8-9.4-3.8h-93c-3.7,0-6.9,1.3-9.5,3.9c-2.6,2.6-3.9,5.7-3.9,9.3v93h-13.2v-93 C613.7,54.5,616.2,48.2,621.4,43.1"></path> <path class="st3" d="M600.2,154.9H480.6c-7.4,0-13.6-2.6-18.8-7.8c-5.2-5.2-7.7-11.4-7.7-18.8V61.9c0-7.4,2.6-13.6,7.7-18.8 c5.2-5.2,11.4-7.7,18.8-7.7h93c7.4,0,13.6,2.6,18.8,7.7c5.2,5.2,7.8,11.4,7.8,18.8s-2.4,13.4-7.3,18.2C586,87,574,99,556.9,116.3 c-10.6,10.6-17.1,17.1-19.5,19.5c-1.9,1.9-3.8,3.8-5.7,5.7h68.6L600.2,154.9L600.2,154.9z M512.8,141.5l70.6-70.6 c2.3-2.6,3.4-5.6,3.4-9c0-3.6-1.3-6.7-3.9-9.3c-2.6-2.6-5.7-3.9-9.3-3.9h-93c-3.6,0-6.7,1.3-9.3,3.9c-2.6,2.6-3.9,5.7-3.9,9.3v66.5 c0,3.6,1.3,6.7,3.9,9.3s5.7,3.9,9.3,3.9L512.8,141.5L512.8,141.5z"></path> <path class="st3" d="M912.6,35.3h6.6v13.4H799.8c-3.6,0-6.7,1.3-9.3,3.9c-2.6,2.6-3.9,5.7-3.9,9.3v66.5c0,3.6,1.3,6.7,3.9,9.3 c2.6,2.6,5.7,3.9,9.3,3.9h119.4V155H799.8c-7.4,0-13.6-2.6-18.8-7.7s-7.8-11.4-7.8-18.8V61.9c0-7.4,2.6-13.6,7.8-18.8 s11.4-7.8,18.8-7.8L912.6,35.3L912.6,35.3z"></path> <path class="st3" d="M940.6,43.1c5.2-5.2,11.4-7.8,18.8-7.8h93c7.4,0,13.6,2.6,18.8,7.8c5.2,5.2,7.8,11.4,7.8,18.8v66.4 c0,7.4-2.6,13.6-7.9,18.8s-11.5,7.8-18.8,7.8h-92.9c-7.4,0-13.6-2.6-18.8-7.8s-7.7-11.4-7.7-18.8V61.9 C932.9,54.5,935.4,48.2,940.6,43.1 M950,52.5c-2.6,2.6-3.9,5.7-3.9,9.3v66.4c0,3.6,1.3,6.8,3.9,9.3c2.6,2.6,5.7,3.9,9.3,3.9h93.1 c3.7,0,6.9-1.3,9.5-3.9c2.6-2.6,3.9-5.7,3.9-9.3V61.9c0-3.7-1.3-6.9-3.9-9.4s-5.8-3.8-9.4-3.8h-93C955.7,48.7,952.5,50,950,52.5"></path> </g> </svg>
